<?xml version="1.0" encoding="UTF-8"?>
<svg id="Layer_1" data-name="Layer 1" xmlns="http://www.w3.org/2000/svg" viewBox="0 0 160 160">
  <defs>
    <style>
      .cls-1 {
        fill: #fff;
      }

      .cls-2 {
        fill: #111;
      }
    </style>
  </defs>
  <circle class="cls-1" cx="80" cy="80" r="80"/>
  <path class="cls-2" d="m62.99,56.99v57.73c0,2.27,0,6.48,2.31,10.47,1.83,4.05,6.99,8.03,13.49,8.08l3.08-.19c5.41-.71,9.63-2.66,13.97-6.52.78-.76,1.24-1.85,1.2-2.96-.02-1.03-.46-1.97-1.2-2.62-1.72-1.66-4.45-1.66-6.13-.04-1.22,1.28-7.47,4.43-9.25,4.15h-.99c-4.49-.4-6.21-2.56-6.52-3-.13-.15-.23-.29-.34-.42l-.19-.25c-1.3-1.99-1.57-6.04-1.57-7.45l.38-47.73c0-.76.61-1.36,1.36-1.36l18.36-.23c2.18,0,3.69-1.45,3.69-3.52,0-1.85-1.66-3.36-3.67-3.36l-18.9.23-.46-.38c-.23-.23-.38-.57-.38-.9l.38-25.93c.01-2.12-2.11-4.07-4.42-4.07-2.16,0-4.05,1.83-4.05,3.9l-.19,26.31s.04.06.04.06Z"/>
</svg>