<svg xmlns="http://www.w3.org/2000/svg" viewBox="0 0 392.9 54.48"><path fill="#111" d="M8.6,53.49c-3.72,0-6.44-2.28-7.39-4.4-1.21-2.08-1.21-4.27-1.21-5.44V16.12L.09,3.58C.09,2.04,1.43,.73,3.02,.73s3.11,1.38,3.11,2.94l-.17,11.95,8.39-.1c1.52,0,2.76,1.16,2.76,2.6,0,1.55-1.16,2.68-2.75,2.68l-8.41,.1-.18,22.41c0,.88,.19,2.4,.55,2.96,0,0,.04,.05,.09,.11,.04,.05,.08,.11,.15,.2,.08,.11,.67,.88,2.36,1.04h.49c.55,.01,3.17-1.21,3.63-1.69,1.2-1.16,3.12-1.16,4.31-.01,.55,.49,.88,1.19,.89,1.96,.02,.8-.31,1.59-.89,2.16-2.25,2-4.42,3.01-7.25,3.38l-1.47,.09-.03-.15v.16ZM1,16.13v27.52c0,1.08,0,3.09,1.1,4.99,.87,1.93,3.33,3.83,6.43,3.85l1.47-.09c2.58-.34,4.59-1.27,6.66-3.11,.37-.36,.59-.88,.57-1.41-.01-.49-.22-.94-.57-1.25-.82-.79-2.12-.79-2.92-.02-.58,.61-3.56,2.11-4.41,1.98h-.47c-2.14-.19-2.96-1.22-3.11-1.43-.06-.07-.11-.14-.16-.2l-.09-.12c-.62-.95-.75-2.88-.75-3.55l.18-22.75c0-.36,.29-.65,.65-.65l8.75-.11c1.04,0,1.76-.69,1.76-1.68,0-.88-.79-1.6-1.75-1.6l-9.01,.11-.22-.18c-.11-.11-.18-.27-.18-.43l.18-12.36c0-1.01-1.01-1.94-2.11-1.94-1.03,0-1.93,.87-1.93,1.86l-.09,12.54Zm4.95,4.43h0s0,0,0,0Zm-.4-4.94h0Zm30.71,38.42c-1.64,0-2.93-1.29-2.93-2.94V18.51c0-1.62,1.31-2.94,2.93-2.94,1.19,0,2.34,1,3.03,2.59,2.46-1.75,4.17-2.36,6.74-2.44h0c2.89,0,5.47,1.08,7.48,3.12,1.22,1.18,1.22,2.91,0,4.19-1.12,1.08-3.12,1.08-4.22,.01-.97-1.01-1.98-1.52-3.2-1.61-1.96-.18-3.72,.34-4.95,1.46-1.22,1.12-1.87,2.81-1.87,4.88v23.34c0,1.68-1.3,2.94-3.02,2.94Zm0-37.48c-1.05,0-1.93,.89-1.93,1.94V51.1c0,1.11,.83,1.94,1.93,1.94,1.17,0,2.02-.82,2.02-1.94V27.76c0-2.37,.76-4.31,2.2-5.62,1.44-1.31,3.46-1.92,5.7-1.71,1.47,.11,2.69,.71,3.83,1.9,.7,.67,2.09,.68,2.8-.01,.83-.87,.83-1.97,0-2.77-1.83-1.85-4.16-2.83-6.76-2.83-2.51,.08-4.06,.69-6.63,2.59l-.2,.15-.54-.14-.12-.28c-.5-1.47-1.42-2.46-2.29-2.46Zm49.58,37.91c-1.29,0-2.43-.9-3-2.34-.13,.09-.25,.17-.37,.25-1.44,.99-2.48,1.7-4.87,1.79-3.77,.11-6.32-.22-8.98-2.29-2.31-1.79-3.63-5-3.63-8.79v-.44c.44-10.31,8.68-11.32,13.6-11.92,.33-.04,.65-.08,.95-.12,.97-.16,1.08-.19,2.46-.59l.24-.07c.34-.2,.36-.31,.36-.62,.08-2.72,.11-4.49,.1-5.28-.07-1.12-1.37-2.67-4.04-2.77-2.63-.1-3.78,.5-4.73,1.13-1.12,.74-2.03,1.86-2.04,1.87-1.3,1.2-2.54,1.41-3.84,.69-1.4-.73-1.94-2.52-1.19-3.98,.7-1.41,3.46-5.91,10.39-5.99,4.22,0,7.84,1.48,9.68,3.96,1.71,2.35,1.9,4.84,1.9,5.8v27.2c.03,.54-.14,1.07-.5,1.49-.51,.59-1.4,.95-2.49,1.02h0Zm-2.84-3.51c.08,0,.15,.01,.23,.04,.2,.07,.36,.24,.42,.44,.46,1.5,1.45,2.04,2.16,2.04,.78-.05,1.44-.3,1.77-.68,.19-.22,.27-.48,.25-.79V24.77c0-.86-.16-3.1-1.7-5.21-1.65-2.22-4.96-3.55-8.87-3.55-6.35,.07-8.86,4.15-9.48,5.4-.53,1.02-.18,2.21,.75,2.7,.92,.51,1.71,.36,2.64-.49h0s.96-1.2,2.21-2.02c1.29-.85,2.69-1.4,5.32-1.3,3.1,.12,4.89,1.97,5,3.66,.02,.9-.02,2.69-.09,5.43-.02,.59-.18,1.07-.92,1.49l-.11,.04-.29,.08c-1.38,.4-1.55,.45-2.6,.62-.32,.04-.64,.08-.98,.12-4.91,.6-12.32,1.5-12.72,10.94v.42c0,3.48,1.18,6.4,3.24,8h0c2.43,1.89,4.8,2.19,8.33,2.08,2.09-.08,2.94-.66,4.34-1.62,.23-.16,.47-.32,.73-.49,.11-.07,.24-.11,.37-.11Zm-.31,.77s0,0,0,0c0,0,0,0,0,0Zm-6.67-3.14c-1.6,0-2.87-.43-3.76-1.28-1.09-1.04-1.6-2.65-1.51-4.81,.17-4.22,3.61-6.13,5.61-6.6,1.48-.34,2.77-.47,5.36-.73l.52-.05c.27-.03,.54,.06,.75,.25,.2,.18,.31,.44,.32,.7l.02,7.67c0,.79-.29,1.55-.83,2.13-.14,.15-.31,.33-.54,.55-.18,.18-.38,.35-.58,.5-1.58,1.17-2.68,1.45-4.42,1.61h0c-.32,.03-.63,.04-.93,.04Zm6.28-12.51l-.48,.09c-2.54,.26-3.82,.39-5.24,.71-1.73,.4-4.69,2.05-4.84,5.66-.08,1.85,.33,3.21,1.2,4.04,.84,.8,2.16,1.13,3.91,.96h0c1.79-.17,2.64-.47,3.91-1.42,.16-.12,.33-.26,.47-.41,.21-.21,.38-.37,.51-.52,.37-.4,.57-.91,.57-1.45l-.02-7.67Zm25.76,17.79c-1.77,0-3.11-1.3-3.11-3.03l.04-32.35c0-1.6,1.47-2.94,3.2-2.94,1.07,0,2.19,.76,2.97,2,2.05-1.19,3.45-1.98,5.76-2.26h.87c4.23-.09,7.43,2.21,8.72,4.53,1.35,2.35,1.5,4.3,1.5,5.57v25.42c0,1.64-1.42,3.03-3.11,3.03-1.77,0-3.11-1.3-3.11-3.03V25.02c0-1.24-.53-2.44-1.44-3.28-.73-.66-2.03-1.41-4.14-1.23-1.82,.25-4.96,1.29-5,3.56l-.04,26.76c0,1.73-1.34,3.03-3.11,3.03Zm.13-37.33c-1.17,0-2.2,.91-2.2,1.94l-.04,32.35c0,1.16,.91,2.03,2.11,2.03s2.11-.87,2.11-2.03l.04-26.77c.05-2.76,3.2-4.17,5.89-4.55,2.49-.22,4.05,.69,4.92,1.49,1.12,1.03,1.77,2.49,1.77,4.02v25.77c0,1.16,.91,2.03,2.11,2.03,1.12,0,2.11-.95,2.11-2.03V25.37c0-1.15-.14-2.93-1.37-5.08-1.15-2.07-4.01-4.12-7.83-4.03h-.82c-2.11,.27-3.39,1.01-5.51,2.24-.37,.22-.84,.09-1.05-.27-.6-1.04-1.48-1.71-2.23-1.71Zm48.31,36.85h-.46c-7.24-.09-11.47-4.19-12.24-5.01-1.06-1.34-1.01-3.16,.1-4.27,.59-.59,1.42-.9,2.32-.87,.96,.03,1.88,.45,2.47,1.13,.31,.36,1.12,1.24,2.03,1.77,1.44,.91,2.86,1.24,5.25,1.24,4.86-.61,4.83-2.76,4.8-4.49v-.22c-.02-2.57-2.48-4.11-6.15-5.62-.38-.16-.79-.32-1.22-.48-4-1.55-9.47-3.67-9.47-10.54v-.61c.05-2.8,1.21-5.47,3.17-7.34,2.02-1.93,4.8-2.9,8.02-2.82,6.78,.19,11,4.57,11.49,5.37,.52,.76,.71,1.61,.53,2.39-.17,.72-.65,1.33-1.35,1.73-1.78,1.01-3.63-.34-4.42-.91-.11-.08-.19-.14-.24-.17l-.25-.18c-1.16-.87-3.11-2.34-5.49-2.34-4.27,.08-5.13,2.25-5.42,4.59,0,3.08,1.32,3.6,5.66,5.33l1.08,.43c3.83,1.32,10.27,3.54,10.56,11.29,.1,2.93-.86,5.6-2.72,7.53-1.93,2-4.71,3.06-8.04,3.06Zm-.45-1h.45c3.06,0,5.59-.95,7.33-2.75,1.67-1.73,2.54-4.15,2.44-6.8-.26-7.06-6.07-9.07-9.91-10.39l-1.1-.44c-4.45-1.77-6.29-2.5-6.29-6.32,.31-2.56,1.32-5.44,6.41-5.53,2.73,0,4.84,1.59,6.1,2.54h0c.05,.03,.11,.06,.17,.1,.09,.06,.16,.12,.21,.17,.03,.02,.06,.05,.1,.07,.69,.5,2.11,1.54,3.34,.85,.47-.26,.77-.64,.87-1.09,.12-.5-.02-1.08-.4-1.62-.04-.07-3.82-4.73-10.68-4.92-2.96-.09-5.48,.8-7.3,2.54-1.77,1.69-2.81,4.1-2.86,6.63v.6c0,6.18,4.9,8.08,8.83,9.61,.43,.17,.85,.33,1.23,.49,3.5,1.44,6.74,3.22,6.77,6.53v.21c.03,1.78,.07,4.77-5.74,5.5h-.04c-2.61,0-4.21-.39-5.79-1.38-.99-.58-1.85-1.49-2.27-1.98-.41-.47-1.06-.76-1.75-.78-.62-.01-1.19,.18-1.58,.57-.74,.74-.76,2.02-.05,2.92,.42,.44,4.52,4.57,11.5,4.66Zm31.24,1.39c-1.69,0-3.02-1.33-3.02-3.03V10.54c0-1.12,0-3.69,.99-5.51,.65-1.18,3.16-5.04,8.4-5.04h.02c1.85,0,3.89,.21,6.22,1.65,1.7,1.19,2.27,2.62,1.63,4.04-.23,.63-.76,1.18-1.47,1.5-.82,.37-1.76,.39-2.59,.07-2.02-.77-2.98-.92-3.79-.92-1.25,.06-2.1,.51-2.6,1.37l-.06,.11h0c-.25,.49-.51,1.55-.53,3.18v4.89h5.44c1.57,0,2.75,1.12,2.75,2.6,0,1.6-1.16,2.77-2.75,2.77h-5.44v29.51c0,1.73-1.38,3.03-3.2,3.03ZM193.68,1c-4.69,0-6.94,3.46-7.52,4.52-.87,1.59-.87,3.99-.87,5.01V50.75c0,1.14,.89,2.03,2.02,2.03,1.27,0,2.2-.85,2.2-2.03V20.93c0-.38,.31-.7,.7-.7h5.74c1.05,0,1.75-.71,1.75-1.77,0-.93-.74-1.6-1.75-1.6h-6.37l-.07-.57v-5.33c.02-2.37,.51-3.43,.72-3.78h0c.68-1.17,1.83-1.79,3.44-1.87h0c.95,0,2.01,.17,4.17,.99,.57,.22,1.25,.2,1.82-.05,.46-.21,.8-.55,.96-.96,.17-.39,.66-1.48-1.26-2.82-1.98-1.22-3.7-1.48-5.67-1.48h-.02Zm30.97,52.78c-6.28,0-10.1-4.22-11.45-7.83-1.33-3.54-1.81-8.13-1.81-11.25,.08-2.27,.36-7.83,1.43-10.71,.75-2.04,3.84-8.71,11.92-8.71,6.05-.15,10.22,4.04,11.68,8.26,1.15,3.33,1.57,8.52,1.57,11.19,0,2.92-.14,7.22-1.35,10.77-1.28,3.76-5.19,8.19-11.99,8.28Zm.38-37.51c-.09,0-.19,0-.28,0-7.44,0-10.29,6.17-10.99,8.06-1.04,2.83-1.31,8.66-1.37,10.38,0,2.87,.46,7.46,1.74,10.88h0c1.25,3.31,4.75,7.18,10.51,7.18,6.26-.09,9.87-4.15,11.05-7.61,1.3-3.81,1.3-8.81,1.3-10.45,0-2.6-.4-7.64-1.52-10.86-1.32-3.81-5.05-7.59-10.44-7.59Zm-.49,31.88c-3,0-4.3-1.51-5.94-4.69-.58-1.14-1.49-6.15-1.34-7.63h-.01s.01,0,.01,0c0-.02,0-.03,0-.04h-.02c0-2.28,0-7.02,1.4-10.02,1.45-3.11,3.5-4.62,6.26-4.62h.01c3.49,0,5.38,3.17,6.03,4.54,1.35,2.84,1.35,6.33,1.35,8.88v.36c0,2.47-.66,6.2-1.47,8.32-1.16,3.03-2.61,4.9-6.29,4.9Zm-6.29-12.36c.02,.71,.36,5.5,1.24,7.21,1.51,2.92,2.54,4.15,5.05,4.15,2.79,0,4.14-1.08,5.36-4.26,.77-2.02,1.4-5.59,1.4-7.96v-.36c0-2.46,0-5.82-1.25-8.45-.57-1.19-2.21-3.96-5.13-3.97h-.01c-2.34,0-4.09,1.32-5.36,4.05-1.31,2.8-1.31,7.39-1.31,9.6h0Zm37.66,18.25c-1.64,0-2.93-1.29-2.93-2.94V18.51c0-1.62,1.31-2.94,2.93-2.94,1.2,0,2.33,.98,3.03,2.59,2.44-1.73,4.19-2.36,6.74-2.44h0c2.89,0,5.47,1.08,7.48,3.12,1.22,1.18,1.22,2.91,0,4.19-1.12,1.08-3.12,1.08-4.22,.01-.97-1.01-1.98-1.52-3.2-1.61-1.97-.18-3.72,.33-4.95,1.45-1.22,1.12-1.87,2.81-1.87,4.88v23.34c0,1.68-1.3,2.94-3.02,2.94Zm0-37.48c-1.05,0-1.93,.89-1.93,1.94V51.1c0,1.11,.83,1.94,1.93,1.94,1.17,0,2.02-.82,2.02-1.94V27.76c0-2.37,.76-4.31,2.2-5.62,1.44-1.31,3.46-1.92,5.7-1.71,1.47,.11,2.69,.71,3.83,1.9,.7,.67,2.09,.68,2.8-.01,.83-.87,.83-1.97,0-2.77-1.83-1.85-4.16-2.83-6.76-2.83-2.46,.08-4.06,.7-6.55,2.53-.16,.12-.37,.16-.56,.1-.19-.06-.35-.21-.41-.39-.5-1.42-1.41-2.38-2.26-2.38Zm2.64,1.87s0,0,0,0c0,0,0,0,0,0Zm31.57,35.59c-1.64,0-2.93-1.29-2.93-2.94l-.2-33.66c0-1.63,1.31-2.95,2.93-2.95,1.19,0,2.31,1.4,2.88,2.85,1.79-1.22,2.96-1.96,4.68-2.05h0c2.18,0,4.5,1.36,6.27,3.64,1.88-2.06,3.28-3.13,5.57-3.22h0c4.14,0,7.34,2.95,7.81,7.17,.14,1.19,.12,2.19,.1,3.35,0,.41-.01,.85-.01,1.33l.02,23.53c0,1.88-1.01,2.87-3,2.94h0c-1.53,0-2.77-1.32-2.77-2.94v-.35c0-.65,0-2.2,.02-4.27,.02-4.09,.05-10.17,.05-15.16,0-1.16-.03-2.2-.06-3.08-.02-.64-.03-1.19-.03-1.64v-1.66c0-1.49-.91-2.53-1.32-2.85-.55-.4-2.01-.86-3.19-.4-1.13,.45-1.69,1.63-1.66,3.53v5.59c0,8.38-.07,19.87-.07,19.87,0,1.62-1.27,2.94-2.84,2.94-.76,0-1.52-.32-2.07-.87-.56-.56-.86-1.29-.86-2.07,.02-16.19,.05-19.53,.06-20.63,0-.34,0-.48,0-.72-.02-2.11-.03-3.64-.09-4.69-.16-2.75-1.8-3.33-3.14-3.33-.74,0-1.49,.33-2.04,.9-.72,.74-1.1,1.86-1.12,3.25l.02,.93h-.02s-.07,24.7-.07,24.7c0,1.59-1.34,2.94-2.93,2.94Zm20.89-32.5c.62,.62,1.43,1.82,1.43,3.4v1.66c0,.44,.02,.98,.03,1.61,.03,.88,.06,1.94,.06,3.11,0,4.99-.03,11.07-.05,15.16,0,2.07-.02,3.62-.02,4.27v.35c0,1.16,.91,1.94,1.75,1.94,1.77-.06,2.02-.97,2.02-1.94l-.02-23.53c0-.49,0-.93,.01-1.35,.02-1.17,.03-2.1-.1-3.22-.41-3.7-3.2-6.28-6.79-6.28-1.77,.07-2.94,.77-4.95,3.01-.17,.19-.4,.31-.68,.29-.26-.01-.5-.14-.66-.34-1.59-2.11-3.66-3.36-5.54-3.36-1.46,.08-2.44,.71-4.5,2.12-.17,.12-.4,.15-.59,.08-.2-.07-.35-.23-.41-.42-.47-1.52-1.47-2.59-2.07-2.59-1.05,0-1.93,.89-1.93,1.94l.2,33.66c0,1.11,.83,1.95,1.93,1.95,.93,0,1.93-.78,1.93-1.94l.07-25.07v-.08c0-.18,0-.35,0-.52v-.04s0,0,0,0c.06-2.03,.78-3.21,1.4-3.85,.74-.77,1.75-1.21,2.76-1.21,2.44,0,3.99,1.6,4.14,4.27,.06,1.08,.07,2.61,.09,4.74,0,.25,0,.39,0,.74-.01,1.1-.05,4.44-.06,20.62,0,.51,.2,1,.57,1.36,.37,.37,.87,.58,1.36,.58,1.01,0,1.84-.87,1.84-1.94,0,0,.07-11.49,.07-19.87v-5.59c-.05-2.92,1.22-4.04,2.29-4.46,1.43-.57,3.21-.12,4.1,.49h0s.07,.05,.11,.08c.09,.07,.17,.14,.23,.21h0Zm33.34,32.39h-1.21c-5.93-.45-9.47-5.24-10.71-9.21-1.33-3.86-1.29-7.73-1.27-9.81l.02-1.35c.08-2.92,.16-6.23,1.44-9.76,1.24-3.8,4.82-8.36,10.8-8.62,6.16-.26,8.66,3.23,10.32,6.69,1.64,3.42,1.81,6.66,1.92,8.8,.05,1.01,.15,2.88,0,3.77-.46,1.32-.99,1.46-2.92,1.48l-15.3-.04c.06,2.39,.22,4.88,1,7.1,.96,2.73,3.12,4.08,4.82,4.21,2.25,.17,3-.34,4.54-1.84l1.55-2.45c.3-.53,.95-.97,1.79-1.17,.94-.23,1.88-.12,2.53,.3,.7,.34,1.25,.94,1.49,1.66,.22,.65,.17,1.35-.15,1.95-.02,.04-.05,.13-.1,.26-2.55,6.66-7.14,8.06-10.55,8.06Zm-1.15-1h1.15c4.49,0,7.73-2.5,9.61-7.42,.06-.15,.1-.27,.14-.34,.2-.39,.23-.81,.1-1.2-.16-.47-.52-.86-1.03-1.11-.47-.3-1.13-.36-1.8-.2-.55,.14-1,.41-1.17,.71l-1.67,2.62c-1.69,1.66-2.72,2.37-5.36,2.17-2.03-.15-4.57-1.72-5.69-4.87-.83-2.35-1-4.93-1.09-7.37,0-.28,.09-.55,.29-.75,.2-.2,.46-.31,.74-.31h0l15.3,.04c1.71-.02,1.73-.07,1.96-.73,.12-.69,.02-2.56-.03-3.46-.11-2.06-.27-5.17-1.83-8.42-1.59-3.32-3.85-6.36-9.37-6.12-5.46,.24-8.69,4.27-9.9,7.95-1.22,3.4-1.3,6.48-1.38,9.47l-.02,1.33c-.02,2.02-.05,5.78,1.22,9.49,1.15,3.68,4.4,8.1,9.82,8.52Zm5.94-21.65h-.02l-11.03-.2c-.23,0-.46-.1-.62-.27-.16-.17-.24-.38-.24-.61,.04-1.54,.35-3.47,.75-4.8,1-3.06,3.15-4.81,5.93-4.81,3.29,0,4.57,2.42,5.34,3.87,.87,1.64,.93,3.54,.98,5.38v.3c.02,.3-.1,.6-.31,.81-.21,.21-.49,.33-.79,.33Zm-10.9-1.16l10.9,.16s.06-.02,.08-.03l.02-.38c-.05-1.72-.11-3.5-.87-4.94-.93-1.76-1.97-3.34-4.45-3.34-2.34,0-4.11,1.46-4.97,4.11-.37,1.19-.65,3-.71,4.42Zm36.49,23.94c-1.64,0-2.93-1.29-2.93-2.94V18.51c0-1.62,1.31-2.94,2.93-2.94,1.19,0,2.34,1,3.03,2.59,2.47-1.75,4.17-2.36,6.74-2.44h0c2.89,0,5.47,1.08,7.48,3.12,1.22,1.18,1.22,2.91,0,4.19-1.12,1.08-3.12,1.08-4.22,.01-.97-1.01-1.98-1.52-3.2-1.61-1.97-.18-3.72,.34-4.95,1.46-1.22,1.12-1.87,2.81-1.87,4.88v23.34c0,1.68-1.3,2.94-3.02,2.94Zm0-37.48c-1.05,0-1.93,.89-1.93,1.94V51.1c0,1.11,.83,1.94,1.93,1.94,1.17,0,2.02-.82,2.02-1.94V27.76c0-2.37,.76-4.31,2.2-5.62,1.44-1.31,3.47-1.92,5.7-1.71,1.47,.11,2.69,.71,3.83,1.9,.7,.67,2.09,.68,2.8-.01,.83-.87,.83-1.97,0-2.77-1.83-1.85-4.16-2.83-6.76-2.83-2.47,.08-4.08,.71-6.6,2.56l-.2,.15-.32-.06c-.18-.06-.32-.19-.38-.37-.5-1.45-1.42-2.42-2.28-2.42Zm2.59,1.9h0Z"/></svg>